<?xml version="1.0" encoding="UTF-8" standalone="no"?>
<!-- Created with Inkscape (http://www.inkscape.org/) -->

<svg
   xmlns:dc="http://purl.org/dc/elements/1.1/"
   xmlns:cc="http://creativecommons.org/ns#"
   xmlns:rdf="http://www.w3.org/1999/02/22-rdf-syntax-ns#"
   xmlns:svg="http://www.w3.org/2000/svg"
   xmlns="http://www.w3.org/2000/svg"
   xmlns:sodipodi="http://sodipodi.sourceforge.net/DTD/sodipodi-0.dtd"
   xmlns:inkscape="http://www.inkscape.org/namespaces/inkscape"
   width="153.54112"
   height="150.81966"
   id="svg5600"
   version="1.1"
   inkscape:version="0.48.4 r9939"
   sodipodi:docname="jackalope-default-sprite-costume-1.svg">
  <defs
     id="defs5602" />
  <sodipodi:namedview
     id="base"
     pagecolor="#ffffff"
     bordercolor="#666666"
     borderopacity="1.0"
     inkscape:pageopacity="0.0"
     inkscape:pageshadow="2"
     inkscape:zoom="0.7"
     inkscape:cx="233.89571"
     inkscape:cy="-13.922868"
     inkscape:document-units="px"
     inkscape:current-layer="layer1"
     showgrid="false"
     fit-margin-top="0"
     fit-margin-left="0"
     fit-margin-right="0"
     fit-margin-bottom="0"
     inkscape:window-width="468"
     inkscape:window-height="438"
     inkscape:window-x="270"
     inkscape:window-y="492"
     inkscape:window-maximized="0" />
  <metadata
     id="metadata5605">
    <rdf:RDF>
      <cc:Work
         rdf:about="">
        <dc:format>image/svg+xml</dc:format>
        <dc:type
           rdf:resource="http://purl.org/dc/dcmitype/StillImage" />
        <dc:title></dc:title>
      </cc:Work>
    </rdf:RDF>
  </metadata>
  <g
     inkscape:label="Layer 1"
     inkscape:groupmode="layer"
     id="layer1"
     transform="translate(-195.44665,-407.31632)">
    <g
       style="font-size:26.56665611px;font-style:normal;font-variant:normal;font-weight:normal;font-stretch:normal;text-align:center;line-height:125%;letter-spacing:0px;word-spacing:0px;writing-mode:lr-tb;text-anchor:middle;fill:#000000;fill-opacity:1;stroke:none;font-family:Comic Sans MS;-inkscape-font-specification:Comic Sans MS"
       transform="matrix(0.97106752,0,0,0.92557946,-2275.8274,210.93354)"
       id="g4913">
      <path
         transform="matrix(-0.7326574,0.00660968,-0.21471867,-0.28688366,4605.3583,435.06331)"
         style="fill:#ff6600;fill-opacity:1;stroke:#782121;stroke-width:6.95759869;stroke-miterlimit:4;stroke-opacity:1;stroke-dashoffset:0"
         d="m 2657.3073,332.88104 c 0,9.17732 -13.9297,16.61701 -31.1127,16.61701 -17.1831,0 -31.1127,-7.43969 -31.1127,-16.61701 0,-9.17732 13.9296,-16.61701 31.1127,-16.61701 17.183,0 31.1127,7.43969 31.1127,16.61701 z"
         id="path4927"
         inkscape:connector-curvature="0" />
      <g
         id="g4915"
         transform="matrix(0.66413252,-0.49473571,0.44947116,0.66413252,770.30092,1411.8087)">
        <path
           transform="matrix(0.38615675,0.27454301,0.30965024,-0.19551079,1504.4268,-319.82609)"
           style="fill:#ff6600;fill-opacity:1;stroke:#782121;stroke-width:9.80779839;stroke-miterlimit:4;stroke-opacity:1;stroke-dashoffset:0"
           d="m 2626.1946,316.26403 c -17.1831,0 -31.1127,7.43969 -31.1127,16.61701 0,9.17732 13.9296,16.61701 31.1127,16.61701 11.4127,0 21.3903,-3.28198 28.1143,-7.42793 6.9047,-1.99868 13.2727,-5.84905 18.8767,-13.1661 9.1571,-11.95645 15.1727,-26.21762 14.2594,-30.91153 -0.9133,-4.6939 -8.7407,1.57491 -17.5668,13.9134 -3.3871,4.73491 -0.1385,-1.24291 -12.0061,14.66302 -7.6824,-6.1009 -18.7608,-10.30488 -31.6775,-10.30488 z"
           id="path4919"
           inkscape:connector-curvature="0"
           sodipodi:nodetypes="ssscssscs" />
      </g>
      <path
         transform="matrix(-0.29748654,0.928316,-0.32412503,-0.35125328,3551.6575,-2075.891)"
         style="fill:#ff6600;fill-opacity:1;stroke:#782121;stroke-width:5.02679253;stroke-miterlimit:4;stroke-opacity:1;stroke-dashoffset:0"
         d="m 2657.3073,332.88104 c -4.7198,-2.67001 -14.951,14.05353 -31.1127,16.61701 -16.542,2.62379 -31.1127,-7.43969 -31.1127,-16.61701 0,-9.17732 13.9296,-16.61701 31.1127,-16.61701 17.183,0 36.1708,19.47839 31.1127,16.61701 z"
         id="path4937"
         inkscape:connector-curvature="0"
         sodipodi:nodetypes="sssss" />
      <path
         transform="matrix(1.2354051,-0.16732891,-0.07514027,1.9323097,-565.31739,124.31052)"
         style="fill:#ff6600;fill-opacity:1;stroke:#782121;stroke-width:2.07695794;stroke-miterlimit:4;stroke-opacity:1;stroke-dashoffset:0"
         d="m 2629.0231,327.93127 c 0,9.17733 -15.9874,16.61701 -35.7089,16.61701 -19.7215,0 -35.7089,-7.43968 -35.7089,-16.61701 0,-9.17732 15.9874,-16.61701 35.7089,-16.61701 9.424,0 17.9954,1.69883 24.4258,4.38332 -0.185,-1.893 0.01,-3.92198 0.6953,-5.97397 1.8796,-5.60978 6.7445,-9.26707 10.8662,-8.16882 4.1217,1.09825 5.9393,6.53616 4.0597,12.14593 -2.682,15.10859 -1.4503,9.80175 -4.3381,14.23055 z"
         id="path4939"
         inkscape:connector-curvature="0"
         sodipodi:nodetypes="cssscsscc" />
      <path
         transform="matrix(0.91597001,0.02837628,-0.02704703,0.96098579,203.49179,-58.115785)"
         style="fill:#ff6600;fill-opacity:1;stroke:#782121;stroke-width:3.40985322;stroke-miterlimit:4;stroke-opacity:1;stroke-dashoffset:0"
         d="m 2610.7953,318.43888 c 4.5406,-1.38403 9.797,-2.17485 15.3993,-2.17485 17.183,0 31.1127,7.43969 31.1127,16.61701 -1.1214,7.84093 -6.0779,8.79283 -14.284,19.48628 -2.4008,2.56962 -5.022,4.90938 -8.591,7.55908 1.3857,0.1353 2.4993,0.34936 4.3154,0.25446 15.3776,-0.80357 29.9043,0.94569 32.446,3.90709 2.5417,2.9614 -7.864,6.01352 -23.2417,6.81709 -15.3777,0.80358 -29.9043,-0.94568 -32.1192,-4.02353 -4.2573,-1.71736 2.3535,-6.11984 6.0063,-15.77136 -3.5181,-0.29858 -6.9183,-1.04351 -10.0471,-2.12097 -5.8483,-2.01396 -13.155,-7.74484 -14.4268,-8.36467"
         id="path4941"
         inkscape:connector-curvature="0"
         sodipodi:nodetypes="cscccsssccsc" />
      <path
         sodipodi:nodetypes="cccc"
         inkscape:connector-curvature="0"
         id="path4943"
         d="m 2665.3907,276.57224 c 2.0771,-13.89126 14.7407,-32.63847 14.7498,-34.6289 -10.2448,7.19409 -19.9449,20.57626 -17.5518,28.81036 z"
         style="fill:#ff6600;stroke:#782121;stroke-width:3.20054579;stroke-linecap:butt;stroke-linejoin:miter;stroke-miterlimit:4;stroke-opacity:1;stroke-dasharray:none" />
      <path
         sodipodi:nodetypes="cssssc"
         inkscape:connector-curvature="0"
         id="path4945"
         d="m 2653.9273,283.60837 c -1.8059,-6.33346 -1.3025,-11.91225 1.931,-15.16074 6.2914,-6.3205 20.5356,-1.42587 31.8155,10.93264 11.2799,12.35844 17.5334,20.85569 11.242,27.17624 -6.2913,6.32056 -22.7452,8.07094 -34.025,-4.28748 -3.0818,-3.37648 -5.6235,-6.96075 -7.5618,-10.51614"
         style="fill:#ff6600;fill-opacity:1;stroke:#782121;stroke-width:3.20054555;stroke-miterlimit:4;stroke-opacity:1;stroke-dasharray:none;stroke-dashoffset:0" />
      <path
         transform="matrix(1.0328322,-0.15346927,0.14628025,1.0835912,-190.99328,380.53786)"
         style="fill:#ffffff;fill-opacity:1;stroke:#782121;stroke-width:2.99546146;stroke-miterlimit:4;stroke-opacity:1;stroke-dashoffset:0"
         d="m 2740,300.61218 c 0,2.34721 -1.9028,4.25 -4.25,4.25 -2.3472,0 -4.25,-1.90279 -4.25,-4.25 0,-2.34721 1.9028,-4.25 4.25,-4.25 2.3472,0 4.25,1.90279 4.25,4.25 z"
         id="path4947"
         inkscape:connector-curvature="0" />
      <path
         transform="matrix(0.39200053,0.11789938,-0.03470001,0.67019208,1540.421,-211.21086)"
         style="fill:#ffffff;fill-opacity:1;stroke:#782121;stroke-width:6.19620275;stroke-miterlimit:4;stroke-opacity:1;stroke-dashoffset:0"
         d="m 2656.0223,333.22238 c -2.707,9.4067 -12.6447,16.27567 -29.8277,16.27567 -17.1831,0 -31.1127,-7.43969 -31.1127,-16.61701 0,-9.17732 13.9296,-16.61701 31.1127,-16.61701 17.183,0 32.2762,8.44994 29.8277,16.95835 z"
         id="path4949"
         inkscape:connector-curvature="0"
         sodipodi:nodetypes="sssss" />
      <path
         transform="matrix(-0.14940226,0.96675348,-0.37432588,-0.29117865,3177.9602,-2196.7661)"
         style="fill:#ff6600;fill-opacity:1;stroke:#782121;stroke-width:5.02679253;stroke-miterlimit:4;stroke-opacity:1;stroke-dashoffset:0"
         d="m 2655.8231,339.61593 c -7.2505,0.4583 -16.2463,9.88212 -29.6285,9.88212 -17.1831,0 -31.1127,-7.43969 -31.1127,-16.61701 0,-9.17732 13.9296,-16.61701 31.1127,-16.61701 8.3795,0 17.952,9.21932 21.5792,4.64646 1.2902,-1.6266 2.4381,-2.81831 3.6264,-4.16953 -8.338,-21.59802 -28.7832,-40.72425 -44.1846,-46.44092 1.7918,4.21038 22.7101,24.24593 39.7316,51.11008"
         id="path4953"
         inkscape:connector-curvature="0"
         sodipodi:nodetypes="cssssccc" />
      <path
         transform="matrix(0.11921922,0.25333917,-0.13098376,0.1703829,2402.7338,-368.17488)"
         style="fill:#ff6600;fill-opacity:1;stroke:#782121;stroke-width:13.83765316;stroke-miterlimit:4;stroke-opacity:1;stroke-dashoffset:0"
         d="m 2455.2771,425.70032 c 11.9475,20.9187 28.9007,31.96513 45.65,28.43667 1.0145,12.83467 25.1416,-0.58974 54.8321,-33.0068 23.1701,-25.29804 42.8812,-54.68697 49.9456,-74.93304 5.0853,1.66392 12.4296,3.3009 20.4898,3.3009 17.183,0 31.1127,-7.43969 31.1127,-16.61701 0,-9.17732 -14.0132,-16.36335 -31.1127,-16.61701 -15.6079,-0.23154 -23.5865,6.3334 -29.9181,14.51111 -8.6885,2.10507 -23.8266,14.42217 -40.7782,32.93045 -8.7784,9.58446 -17.0597,19.75664 -20.4334,24.33528 2.1558,-18.54543 -2.0554,-31.72043 -8.7214,-43.39183 -12.3204,-21.57176 -29.9639,-32.64518 -46.1841,-31.3784"
         id="path4959"
         inkscape:connector-curvature="0"
         sodipodi:nodetypes="ccscssscscsc" />
    </g>
  </g>
</svg>
